<?xml version="1.0" encoding="utf-8"?>
<!-- Generator: Adobe Illustrator 17.0.0, SVG Export Plug-In . SVG Version: 6.00 Build 0)  -->
<!DOCTYPE svg PUBLIC "-//W3C//DTD SVG 1.1//EN" "http://www.w3.org/Graphics/SVG/1.1/DTD/svg11.dtd">
<svg version="1.1" id="图层_1" xmlns="http://www.w3.org/2000/svg" xmlns:xlink="http://www.w3.org/1999/xlink" x="0px" y="0px"
	 width="48px" height="48px" viewBox="0 0 48 48" enable-background="new 0 0 48 48" xml:space="preserve">
<g>
	<g id="Expanded">
		<g>
			<g>
				<path d="M26.69,7.506c2.491-3.404,5.6-4.219,9.197-4.219C41.721,3.287,48,7.512,48,16.787c0,6.881-3.977,14.048-11.821,21.301
					c-5.765,5.331-11.439,8.641-11.678,8.778c-0.155,0.09-0.328,0.135-0.501,0.135s-0.346-0.045-0.501-0.135
					c-0.239-0.138-5.913-3.447-11.678-8.778C3.977,30.835,0,23.668,0,16.787c0-9.275,6.279-13.5,12.113-13.5
					c4.003,0,8.426,2.036,11.013,6.468l-0.836,2.882c-1.957-5.055-6.305-7.35-10.177-7.35C7.242,5.287,2,8.886,2,16.787
					C2,30.65,20.674,42.783,24,44.833c3.323-2.051,22-14.193,22-28.046c0-7.901-5.242-11.5-10.113-11.5
					c-3.537,0-6.471,0.915-8.618,5.1"/>
			</g>
		</g>
	</g>
	<g>
		<path d="M24,13.333"/>
	</g>
	<g>
		<path d="M22.958,45.93c-0.346,0-0.682-0.179-0.867-0.5l-7.121-12.331l6.531-7.774l-3.191-6.138l2.842-9.449
			c0.159-0.528,0.719-0.827,1.246-0.669c0.529,0.159,0.829,0.717,0.669,1.246l-2.607,8.67l3.433,6.604l-6.489,7.724l6.42,11.118
			c0.276,0.479,0.112,1.09-0.366,1.366C23.3,45.887,23.128,45.93,22.958,45.93z"/>
	</g>
	<g>
		<path d="M27.24,44c-0.354,0-0.696-0.188-0.878-0.521l-5.135-9.39l6.567-6.41l-4.188-10.075l2.827-9.402
			c0.159-0.528,0.714-0.831,1.246-0.669c0.528,0.159,0.828,0.717,0.67,1.246l-2.622,8.717l4.435,10.667l-6.452,6.297l4.406,8.06
			c0.266,0.484,0.087,1.092-0.397,1.356C27.566,43.961,27.402,44,27.24,44z"/>
	</g>
</g>
</svg>
