<?xml version="1.0" encoding="utf-8"?>
<!-- Generator: Adobe Illustrator 17.0.0, SVG Export Plug-In . SVG Version: 6.00 Build 0)  -->
<!DOCTYPE svg PUBLIC "-//W3C//DTD SVG 1.1//EN" "http://www.w3.org/Graphics/SVG/1.1/DTD/svg11.dtd">
<svg version="1.1" id="Layer_1" xmlns="http://www.w3.org/2000/svg" xmlns:xlink="http://www.w3.org/1999/xlink" x="0px" y="0px"
	 width="50px" height="50px" viewBox="0 0 50 50" enable-background="new 0 0 50 50" xml:space="preserve">
<rect fill="none" width="50" height="50"/>
<g>
	<g>
		<path d="M25,48c-0.552,0-1-0.447-1-1V10c0-2.757,2.243-5,5-5h16c2.757,0,5,2.243,5,5v29c0,2.757-2.243,5-5,5H29
			c-1.654,0-3,1.346-3,3C26,47.553,25.553,48,25,48z M29,7c-1.654,0-3,1.346-3,3v33.002C26.836,42.373,27.875,42,29,42h16
			c1.654,0,3-1.346,3-3V10c0-1.654-1.346-3-3-3H29z"/>
	</g>
	<g>
		<path d="M25,48c-0.552,0-1-0.447-1-1c0-1.654-1.346-3-3-3H5c-2.757,0-5-2.243-5-5V10c0-2.757,2.243-5,5-5h16c2.757,0,5,2.243,5,5
			v37C26,47.553,25.553,48,25,48z M5,7c-1.654,0-3,1.346-3,3v29c0,1.654,1.346,3,3,3h16c1.125,0,2.164,0.373,3,1.002V10
			c0-1.654-1.346-3-3-3H5z"/>
	</g>
</g>
</svg>
