<?xml version="1.0" ?><!DOCTYPE svg  PUBLIC '-//W3C//DTD SVG 1.1//EN'  'http://www.w3.org/Graphics/SVG/1.1/DTD/svg11.dtd'><svg enable-background="new 0 0 50 50" height="50px" id="Layer_1" version="1.1" viewBox="0 0 50 50" width="50px" xml:space="preserve" xmlns="http://www.w3.org/2000/svg" xmlns:xlink="http://www.w3.org/1999/xlink"><path d="M22.321,27.805c1.878,2.794,1.964,6.569-0.082,9.484c-0.291,0.416-4.595,6.55-5.02,7.152  c-1.285,1.831-3.205,3.053-5.407,3.438C9.61,48.265,7.39,47.77,5.56,46.485c-1.83-1.285-3.051-3.206-3.438-5.408  c-0.386-2.202,0.108-4.423,1.394-6.253l5.833-8.311l-1.631-1.145L1.885,33.68c-1.591,2.266-2.204,5.015-1.727,7.741  c0.479,2.728,1.99,5.105,4.257,6.696c2.265,1.59,5.015,2.202,7.741,1.725l0,0c2.727-0.478,5.104-1.988,6.693-4.252  c0.424-0.603,4.731-6.741,5.021-7.156c2.686-3.826,2.411-8.855-0.338-12.355L22.321,27.805z"/><path d="M27.805,22.321c2.794,1.878,6.569,1.964,9.484-0.082c0.416-0.291,6.55-4.595,7.152-5.02  c1.831-1.285,3.053-3.205,3.438-5.407C48.265,9.61,47.77,7.39,46.485,5.56c-1.285-1.83-3.206-3.051-5.408-3.438  c-2.202-0.386-4.423,0.108-6.253,1.394l-8.311,5.833l-1.145-1.631l8.311-5.833c2.266-1.591,5.015-2.204,7.741-1.727  c2.728,0.479,5.105,1.99,6.696,4.257c1.59,2.265,2.202,5.015,1.725,7.741l0,0c-0.478,2.727-1.988,5.104-4.252,6.693  c-0.603,0.424-6.741,4.731-7.156,5.021c-3.826,2.686-8.855,2.411-12.355-0.338L27.805,22.321z"/><rect fill="none" height="50" width="50"/><line fill="none" stroke="#000000" stroke-linecap="round" stroke-miterlimit="10" stroke-width="2" x1="2" x2="15" y1="2" y2="15"/></svg>