<?xml version="1.0" encoding="utf-8"?>
<!-- Generator: Adobe Illustrator 17.0.0, SVG Export Plug-In . SVG Version: 6.00 Build 0)  -->
<!DOCTYPE svg PUBLIC "-//W3C//DTD SVG 1.1//EN" "http://www.w3.org/Graphics/SVG/1.1/DTD/svg11.dtd">
<svg version="1.1" id="Layer_1" xmlns="http://www.w3.org/2000/svg" xmlns:xlink="http://www.w3.org/1999/xlink" x="0px" y="0px"
	 width="50px" height="50px" viewBox="0 0 50 50" enable-background="new 0 0 50 50" xml:space="preserve">
<g>
	<g>
		<rect fill="none" width="50" height="50"/>
	</g>
</g>
<g>
	<g>
		<path d="M10,34.04H3c-1.676,0-3.04-1.364-3.04-3.04V19c0-1.676,1.364-3.04,3.04-3.04h7v2.08H3c-0.529,0-0.96,0.431-0.96,0.96v12
			c0,0.529,0.431,0.96,0.96,0.96h7V34.04z"/>
	</g>
</g>
<g>
	<g>
		<path d="M24.16,46.991c-0.626,0-1.595-0.225-2.65-1.296L8.905,33.131c-0.599-0.514-0.895-1.604-0.895-2.377V19.247
			c0-0.78,0.296-1.876,0.947-2.438L21.575,4.225c0.769-0.78,1.697-1.213,2.607-1.213c1.352,0,2.808,1.038,2.808,3.316v36.988
			C26.99,45.479,25.826,46.991,24.16,46.991z M24.182,4.991c-0.371,0-0.809,0.229-1.203,0.63L10.303,18.259
			c-0.135,0.137-0.313,0.558-0.313,0.988v11.507c0,0.425,0.177,0.839,0.268,0.933L22.914,44.3c0.448,0.455,0.9,0.712,1.246,0.712
			c0.5,0,0.851-0.697,0.851-1.696V6.327C25.01,6.014,24.95,4.991,24.182,4.991z"/>
	</g>
</g>
<g>
	<g>
		<path d="M30.688,31.584c-0.443,0-0.849-0.298-0.967-0.747c-0.14-0.534,0.181-1.081,0.715-1.221C32.534,29.067,34,27.169,34,25
			c0-2.17-1.466-4.068-3.564-4.615c-0.534-0.14-0.854-0.686-0.715-1.22c0.14-0.535,0.688-0.854,1.221-0.715
			C33.92,19.227,36,21.92,36,25c0,3.078-2.08,5.772-5.059,6.552C30.856,31.573,30.771,31.584,30.688,31.584z"/>
	</g>
</g>
<g>
	<g>
		<path d="M34.956,37.835c-0.354,0-0.698-0.189-0.88-0.522c-0.264-0.485-0.084-1.093,0.401-1.356C38.501,33.771,41,29.573,41,25
			c0-4.59-2.512-8.796-6.555-10.978c-0.486-0.262-0.668-0.869-0.405-1.355c0.262-0.486,0.87-0.667,1.354-0.405
			C40.086,14.793,43,19.674,43,25c0,5.308-2.899,10.179-7.567,12.714C35.28,37.796,35.117,37.835,34.956,37.835z"/>
	</g>
</g>
<g>
	<g>
		<path d="M38.499,43.18c-0.366,0-0.718-0.201-0.894-0.55c-0.249-0.493-0.051-1.095,0.442-1.343
			C44.234,38.166,48.077,31.926,48.077,25c0-6.925-3.843-13.166-10.029-16.288c-0.493-0.249-0.691-0.85-0.442-1.343
			c0.249-0.492,0.851-0.691,1.343-0.442C45.813,10.391,50.077,17.316,50.077,25c0,7.685-4.265,14.609-11.129,18.072
			C38.804,43.146,38.65,43.18,38.499,43.18z"/>
	</g>
</g>
</svg>
